<svg width="120" height="109" viewBox="0 0 120 109" fill="none" xmlns="http://www.w3.org/2000/svg">
<path d="M0 25.1766V0H4.156V25.1766H0Z" fill="white"/>
<path d="M30.202 22.4844H12.5687V18.6088H30.202V22.4844Z" fill="white"/>
<path d="M38.6147 25.1766V0H42.7707V25.1766H38.6147Z" fill="white"/>
<path d="M62.1671 22.4844H57.8329C54.4191 22.4844 52.4301 21.0939 52.4301 17.81V6.92283C52.4301 3.63892 54.4191 2.24844 57.8329 2.24844H62.1671C65.5809 2.24844 67.5699 3.63892 67.5699 6.92283V17.81C67.5699 21.0939 65.5809 22.4844 62.1671 22.4844ZM58.397 18.6088H61.603C62.9389 18.6088 63.3842 18.1059 63.3842 17.0112V7.66244C63.3842 6.56781 62.9389 6.06487 61.603 6.06487H58.397C57.0611 6.06487 56.5861 6.56781 56.5861 7.66244V17.0112C56.5861 18.1059 57.0611 18.6088 58.397 18.6088Z" fill="white"/>
<path d="M77.2293 25.1766V0H81.3853V25.1766H77.2293Z" fill="white"/>
<path d="M107.431 22.4844H89.798V18.6088H107.431V22.4844Z" fill="white"/>
<path d="M115.844 25.1766V0H120V25.1766H115.844Z" fill="white"/>
<path d="M0 67.0883V41.9117H4.156V67.0883H0Z" fill="white"/>
<path d="M30.202 64.3961H12.5687V60.5205H30.202V64.3961Z" fill="white"/>
<path d="M38.6147 67.0883V41.9117H42.7707V67.0883H38.6147Z" fill="white"/>
<path d="M68.8167 64.3961H51.1833V60.5205H68.8167V64.3961Z" fill="white"/>
<path d="M77.2293 67.0883V41.9117H81.3853V67.0883H77.2293Z" fill="white"/>
<path d="M100.782 64.3961H96.4476C93.0337 64.3961 91.0448 63.0056 91.0448 59.7217V48.8345C91.0448 45.5506 93.0337 44.1601 96.4476 44.1601H100.782C104.196 44.1601 106.185 45.5506 106.185 48.8345V59.7217C106.185 63.0056 104.196 64.3961 100.782 64.3961ZM97.0116 60.5205H100.218C101.554 60.5205 101.999 60.0176 101.999 58.9229V49.5741C101.999 48.4795 101.554 47.9766 100.218 47.9766H97.0116C95.6758 47.9766 95.2008 48.4795 95.2008 49.5741V58.9229C95.2008 60.0176 95.6758 60.5205 97.0116 60.5205Z" fill="white"/>
<path d="M115.844 67.0883V41.9117H120V67.0883H115.844Z" fill="white"/>
<path d="M0 109V83.8234H4.156V109H0Z" fill="white"/>
<path d="M23.5524 106.308H19.2183C15.8044 106.308 13.8155 104.917 13.8155 101.633V90.7462C13.8155 87.4623 15.8044 86.0718 19.2183 86.0718H23.5524C26.9663 86.0718 28.9552 87.4623 28.9552 90.7462V101.633C28.9552 104.917 26.9663 106.308 23.5524 106.308ZM19.7823 102.432H22.9884C24.3242 102.432 24.7695 101.929 24.7695 100.835V91.4858C24.7695 90.3912 24.3242 89.8883 22.9884 89.8883H19.7823C18.4464 89.8883 17.9715 90.3912 17.9715 91.4858V100.835C17.9715 101.929 18.4464 102.432 19.7823 102.432Z" fill="white"/>
<path d="M38.6147 109V83.8234H42.7707V109H38.6147Z" fill="white"/>
<path d="M62.1671 106.308H57.8329C54.4191 106.308 52.4301 104.917 52.4301 101.633V90.7462C52.4301 87.4623 54.4191 86.0718 57.8329 86.0718H62.1671C65.5809 86.0718 67.5699 87.4623 67.5699 90.7462V101.633C67.5699 104.917 65.5809 106.308 62.1671 106.308ZM58.397 102.432H61.603C62.9389 102.432 63.3842 101.929 63.3842 100.835V91.4858C63.3842 90.3912 62.9389 89.8883 61.603 89.8883H58.397C57.0611 89.8883 56.5861 90.3912 56.5861 91.4858V100.835C56.5861 101.929 57.0611 102.432 58.397 102.432Z" fill="white"/>
<path d="M77.2293 109V83.8234H81.3853V109H77.2293Z" fill="white"/>
<path d="M100.782 106.308H96.4476C93.0337 106.308 91.0448 104.917 91.0448 101.633V90.7462C91.0448 87.4623 93.0337 86.0718 96.4476 86.0718H100.782C104.196 86.0718 106.185 87.4623 106.185 90.7462V101.633C106.185 104.917 104.196 106.308 100.782 106.308ZM97.0116 102.432H100.218C101.554 102.432 101.999 101.929 101.999 100.835V91.4858C101.999 90.3912 101.554 89.8883 100.218 89.8883H97.0116C95.6758 89.8883 95.2008 90.3912 95.2008 91.4858V100.835C95.2008 101.929 95.6758 102.432 97.0116 102.432Z" fill="white"/>
<path d="M115.844 109V83.8234H120V109H115.844Z" fill="white"/>
</svg>
